<?xml version="1.0" encoding="UTF-8" standalone="no"?>
<!-- Created with Inkscape (http://www.inkscape.org/) -->

<svg
   width="127.99999"
   height="127.99999"
   viewBox="0 0 33.866664 33.866664"
   version="1.1"
   id="svg1"
   xml:space="preserve"
   inkscape:version="1.3.2 (091e20e, 2023-11-25, custom)"
   sodipodi:docname="ium-logo.svg"
   xmlns:inkscape="http://www.inkscape.org/namespaces/inkscape"
   xmlns:sodipodi="http://sodipodi.sourceforge.net/DTD/sodipodi-0.dtd"
   xmlns="http://www.w3.org/2000/svg"
   xmlns:svg="http://www.w3.org/2000/svg"><sodipodi:namedview
     id="namedview1"
     pagecolor="#ffffff"
     bordercolor="#000000"
     borderopacity="0.25"
     inkscape:showpageshadow="2"
     inkscape:pageopacity="0.0"
     inkscape:pagecheckerboard="0"
     inkscape:deskcolor="#d1d1d1"
     inkscape:document-units="mm"
     inkscape:zoom="2.8970539"
     inkscape:cx="25.370602"
     inkscape:cy="83.360549"
     inkscape:window-width="2560"
     inkscape:window-height="1009"
     inkscape:window-x="1912"
     inkscape:window-y="-8"
     inkscape:window-maximized="1"
     inkscape:current-layer="layer1" /><defs
     id="defs1" /><g
     inkscape:label="Layer 1"
     inkscape:groupmode="layer"
     id="layer1"><g
       id="g1"
       transform="matrix(0.32569561,0,0,0.32569561,-24.650031,-93.914564)"><path
         style="fill:#008c36;fill-opacity:1"
         d="m 120.39984,385.05965 -7.27277,-7.27637 h 4.63337 4.63337 l 2.63794,2.64788 2.63795,2.64788 14.75344,-14.75168 14.75345,-14.75168 v 4.70897 4.70897 l -0.91755,0.38337 c -1.29064,0.53926 -3.74474,0.47732 -5.0783,-0.12818 l -1.10106,-0.49993 0.49994,1.10105 c 0.59977,1.32094 0.66946,3.79792 0.14102,5.01216 -0.20842,0.47892 -5.33115,5.8 -11.70928,12.16267 L 127.6726,392.33603 Z M 104.6433,368.92824 c -0.53927,-1.29064 -0.47732,-3.74475 0.12818,-5.07831 l 0.49993,-1.10105 -1.10106,0.49993 c -1.32093,0.59977 -3.79791,0.66946 -5.01215,0.14103 -0.47892,-0.20843 -5.8,-5.33116 -12.16267,-11.70929 l -11.31127,-11.33876 7.27637,-7.27276 7.27638,-7.27277 v 4.63337 4.63337 l -2.64788,2.63794 -2.64788,2.63795 14.75168,14.75344 14.75168,14.75345 h -4.70897 -4.70897 z m 36.73208,-50.33123 c -82.87954,-175.49008 -82.87954,-175.49008 0,0 z m -1.45746,-0.3446 c -81.42208,-175.14548 -81.42208,-175.14548 0,0 z m 25.19617,32.00744 c -0.0642,-5.04916 -0.68268,-3.95325 2.64788,-7.27132 l 2.64788,-2.63794 -14.75168,-14.75345 -14.75168,-14.75345 h 4.70896 4.70897 l 0.38338,0.91755 c 0.53926,1.29064 0.47732,3.74474 -0.12818,5.0783 l -0.49994,1.10106 1.10106,-0.49993 c 1.32094,-0.59977 3.79792,-0.66947 5.01216,-0.14103 0.47892,0.20843 5.8,5.33116 12.16267,11.70929 l 11.31126,11.33875 -7.27637,7.27277 -7.27637,7.27276 z M 98.17451,322.40483 v -4.70897 l 0.91754,-0.38337 c 1.29064,-0.53927 3.74474,-0.47732 5.0783,0.12818 l 1.10106,0.49993 -0.49993,-1.10106 c -0.59977,-1.32093 -0.66947,-3.79791 -0.14103,-5.01216 0.20843,-0.47891 5.33116,-5.79999 11.70929,-12.16266 l 11.33875,-11.31127 7.27277,7.27637 7.27276,7.27637 h -4.63337 -4.63336 l -2.63795,-2.64788 -2.63794,-2.64788 -14.75345,14.75169 -14.75344,14.75168 z m 62.90713,-1.70541 c -2e-5,-10e-6 6e-5,-3e-5 4e-5,-5e-5 z"
         id="path1"
         sodipodi:nodetypes="ccccccccccsscsssccsscssscccccccccccssssscccccccsscsssccccccsscsssccccccccccccc" /><path
         d="m 118.19654,346.01381 c 0,-0.0571 1.72814,-1.32535 3.8403,-2.81838 2.11217,-1.49302 3.80169,-2.7532 3.75449,-2.8004 -0.0472,-0.0472 -1.92417,-0.77724 -4.17104,-1.62232 -4.03643,-1.51814 -4.0862,-1.54665 -4.16812,-2.38747 -0.0506,-0.51882 0.0374,-0.85097 0.2254,-0.85097 0.16957,0 1.9732,0.72406 4.00807,1.60903 2.03487,0.88498 3.75301,1.5558 3.81809,1.49072 0.0651,-0.0651 -1.62149,-0.87526 -3.74793,-1.80041 -2.12645,-0.92514 -3.74669,-1.72194 -3.60054,-1.77065 0.14616,-0.0487 1.81542,0.57318 3.70947,1.38199 3.67838,1.57076 3.74014,1.59128 3.74014,1.24233 0,-0.12553 -1.363,-0.8018 -3.02889,-1.50283 -1.66589,-0.70102 -2.97529,-1.36132 -2.90978,-1.46732 0.0655,-0.10599 1.45106,0.39607 3.07899,1.11571 1.62793,0.71964 3.14488,1.2728 3.37099,1.22926 0.22611,-0.0435 -0.65963,-0.54649 -1.96833,-1.11764 -1.30869,-0.57116 -2.49255,-1.13523 -2.63079,-1.2535 -0.53876,-0.4609 0.37745,-0.17813 2.7325,0.84331 1.42328,0.61731 2.85661,1.05833 3.43959,1.05833 0.58453,0 2.02205,-0.44352 3.46257,-1.06831 1.35471,-0.58756 2.58773,-1.02676 2.74005,-0.97599 0.15231,0.0508 -0.94971,0.61609 -2.44894,1.25626 -1.49924,0.64017 -2.58856,1.20971 -2.42073,1.26566 0.32106,0.10702 0.90737,-0.10817 4.45413,-1.63472 1.20054,-0.51672 2.18281,-0.8469 2.18281,-0.73374 0,0.11317 -1.33945,0.78238 -2.97656,1.48714 -3.25095,1.39951 -3.25663,1.40246 -3.06509,1.594 0.0726,0.0726 1.77929,-0.58212 3.79269,-1.45488 2.0134,-0.87277 3.72011,-1.52746 3.79269,-1.45488 0.19033,0.19032 0.2213,0.17476 -3.39581,1.70617 -3.86462,1.63619 -4.32432,1.86259 -4.14539,2.04152 0.0733,0.0733 1.80598,-0.59119 3.8504,-1.47665 2.04442,-0.88545 3.84766,-1.60991 4.0072,-1.60991 0.16729,0 0.25497,0.35906 0.20715,0.84833 -0.0816,0.83471 -0.14668,0.87276 -4.05166,2.36803 -2.18281,0.83583 -4.06769,1.55862 -4.18862,1.60621 -0.12094,0.0476 1.51617,1.31125 3.63802,2.80814 2.12184,1.4969 3.8579,2.77361 3.8579,2.83713 0,0.0635 -0.57708,0.11549 -1.28238,0.11549 -1.19175,0 -1.51779,-0.1683 -4.61305,-2.38125 -1.83187,-1.30969 -3.4116,-2.38125 -3.51051,-2.38125 -0.0989,0 -1.65363,1.07156 -3.45492,2.38125 -3.08834,2.24547 -3.35063,2.38125 -4.59983,2.38125 -0.7286,0 -1.32473,-0.0467 -1.32473,-0.10379 z m 10.15361,-7.10114 c 0.22191,-0.35237 0.1874,-0.55912 -0.14956,-0.89608 -0.79261,-0.79261 -1.97515,0.24328 -1.26059,1.10427 0.4114,0.4957 1.02382,0.40529 1.41015,-0.20819 z"
         style="fill:#ce980e;fill-opacity:1"
         id="path1-5" /><path
         d="m 123.44152,360.91822 c -7.83492,-1.75371 -13.91416,-7.52806 -16.03965,-15.23524 -0.65249,-2.36596 -0.65249,-7.92218 0,-10.28814 2.66692,-9.67041 11.57132,-16.15302 21.33131,-15.52966 5.46727,0.34919 9.8855,2.38639 13.65578,6.29651 1.92023,1.99144 3.05642,3.62987 4.07498,5.87626 1.33128,2.93607 1.68937,4.73799 1.68937,8.50096 0,3.76297 -0.35809,5.56489 -1.68937,8.50096 -2.52233,5.56289 -7.71719,9.97913 -13.63926,11.59498 -2.24958,0.61381 -7.23434,0.76434 -9.38316,0.28337 z m 7.50594,-6.62306 c 6.30397,-1.64198 10.75031,-7.33157 10.75031,-13.75625 0,-9.07516 -8.57505,-15.83696 -17.43522,-13.74843 -6.2166,1.46538 -10.85455,7.28716 -10.87129,13.64617 -0.0169,6.41201 4.39696,12.1684 10.61216,13.84005 1.87968,0.50556 5.04166,0.51397 6.94404,0.0185 z"
         style="fill:#008c36;fill-opacity:1"
         id="path1-9" /><path
         d="m 124.12609,366.24573 c -0.46578,-0.14189 -0.91929,-0.37516 -1.0078,-0.51837 -0.0885,-0.14322 -0.81466,-0.2604 -1.61366,-0.2604 -1.47184,0 -2.63837,-0.41927 -3.26405,-1.17318 -0.18912,-0.22787 -0.69121,-0.41432 -1.11575,-0.41432 -1.01671,0 -2.68022,-0.86542 -3.20602,-1.66789 -0.23066,-0.35202 -0.77487,-0.71114 -1.20936,-0.79804 -0.97833,-0.19567 -2.63762,-1.61706 -2.84301,-2.43541 -0.0865,-0.34452 -0.42132,-0.67643 -0.77095,-0.76418 -0.86888,-0.21807 -2.14977,-1.57412 -2.50576,-2.65277 -0.16526,-0.50075 -0.75879,-1.36877 -1.31895,-1.92893 -0.79923,-0.79922 -1.06022,-1.30102 -1.21237,-2.33094 -0.11124,-0.75303 -0.45556,-1.62592 -0.80778,-2.04785 -0.67744,-0.81151 -1.04414,-2.25496 -0.80509,-3.16909 0.0906,-0.34652 -0.0745,-1.06399 -0.39924,-1.73482 -0.4307,-0.88972 -0.51154,-1.38976 -0.36378,-2.25023 0.23686,-1.37931 0.23767,-1.88907 0.005,-3.23243 -0.1338,-0.7731 -0.0552,-1.35728 0.28466,-2.11667 0.25821,-0.57688 0.48385,-1.72 0.50142,-2.54028 0.0245,-1.14318 0.19924,-1.74418 0.74839,-2.57401 0.39404,-0.59544 0.71905,-1.29352 0.72225,-1.5513 0.0106,-0.8527 0.96422,-2.59631 1.80862,-3.30683 0.45727,-0.38477 0.8314,-0.91776 0.8314,-1.18441 0,-0.84753 1.26849,-2.40582 2.24618,-2.75935 0.51086,-0.18473 0.92883,-0.48141 0.92883,-0.65929 0,-0.903 2.2694,-2.74529 3.38174,-2.74529 0.27368,0 0.64877,-0.28247 0.83354,-0.62771 0.4338,-0.81057 2.11725,-1.75354 3.13054,-1.75354 0.43531,0 0.94621,-0.18644 1.13533,-0.41432 0.61319,-0.73885 1.78184,-1.17318 3.15668,-1.17318 0.82049,0 1.61311,-0.17543 2.03165,-0.44967 0.45364,-0.29724 1.1456,-0.43387 2.04121,-0.40305 1.70463,0.0587 2.59272,0.0587 4.29735,0 0.89562,-0.0308 1.58757,0.10581 2.04121,0.40305 0.41855,0.27424 1.21116,0.44967 2.03166,0.44967 1.37484,0 2.5435,0.43433 3.15669,1.17318 0.18912,0.22788 0.6912,0.41432 1.11575,0.41432 1.0167,0 3.98088,2.37904 4.41538,2.46594 0.97833,0.19566 2.63761,1.61707 2.84301,2.43541 0.0865,0.34453 0.42131,0.67643 0.77095,0.76419 0.8878,0.22282 2.15247,1.58234 2.52666,2.71615 0.17677,0.53561 0.67848,1.27431 1.11491,1.64154 0.90151,0.75857 1.51531,2.03714 1.51531,3.15645 0,0.42035 0.23251,0.97165 0.51921,1.23111 0.70084,0.63426 1.15964,2.12171 0.98548,3.19497 -0.0961,0.59237 0.0293,1.20957 0.38416,1.88959 0.4071,0.78021 0.48734,1.28064 0.35284,2.2005 -0.23274,1.59177 -0.23173,2.3264 0.005,3.48868 0.15228,0.74825 0.0674,1.24588 -0.36478,2.13864 -0.39541,0.81682 -0.51301,1.41464 -0.39467,2.00636 0.18477,0.92381 -0.45731,2.95359 -1.10409,3.49037 -0.21063,0.1748 -0.38296,0.62284 -0.38296,0.99564 0,1.05065 -1.02089,2.90952 -1.87499,3.41406 -0.45308,0.26763 -0.77084,0.67918 -0.77084,0.99833 0,0.80107 -1.16616,2.3759 -2.09104,2.82384 -0.44365,0.21486 -1.08022,0.79664 -1.41461,1.29284 -0.72987,1.08306 -2.17365,2.1054 -2.9733,2.1054 -0.3592,0 -0.69268,0.24761 -0.87633,0.65069 -0.34433,0.75571 -2.09801,1.73056 -3.11317,1.73056 -0.38497,0 -1.04826,0.29308 -1.47397,0.65129 -0.93139,0.78372 -2.40338,1.22882 -3.40277,1.02895 -0.46775,-0.0935 -0.99337,0.0254 -1.45845,0.33017 -0.68553,0.44918 -1.17213,0.49094 -4.09844,0.35173 -0.3638,-0.0173 -1.13771,0.0346 -1.71979,0.11532 -0.58209,0.0807 -1.43943,0.0307 -1.90521,-0.11119 z m 2.52877,-0.74974 c 0.52297,-0.33138 -0.044,-0.61359 -1.3609,-0.67746 -0.817,-0.0396 -1.17471,-0.2068 -1.48516,-0.69407 -0.22492,-0.35303 -0.84466,-1.08836 -1.3772,-1.63406 -0.76631,-0.78525 -1.16788,-0.99219 -1.92542,-0.99219 -0.99345,0 -1.30274,0.43473 -0.49414,0.69457 1.55093,0.49838 1.97795,0.79488 2.51116,1.74359 0.32452,0.57741 0.88941,1.21277 1.25532,1.41191 0.75146,0.40898 2.3356,0.49033 2.87634,0.14771 z m 4.68368,-0.15629 c 0.4334,-0.33067 0.45385,-0.43106 0.13097,-0.643 -0.23735,-0.15579 -0.55722,-0.1577 -0.8425,-0.005 -0.8676,0.46432 -1.5373,0.24438 -2.87592,-0.94451 -1.2126,-1.07695 -1.46814,-1.19062 -2.67672,-1.19062 -1.64449,0 -1.66791,0.58642 -0.0323,0.80907 0.78448,0.10678 1.41713,0.45434 2.28766,1.25677 1.02689,0.94655 1.3713,1.10916 2.34926,1.10916 0.63028,0 1.37708,-0.17633 1.65956,-0.39185 z m -9.32239,-0.576 c 0.31843,-0.31843 -0.40496,-0.88424 -1.13049,-0.88424 -0.83303,0 -1.74782,-0.87326 -2.00646,-1.91537 -0.17152,-0.6911 -1.73536,-2.31796 -2.22817,-2.31796 -0.12855,0 -0.42207,-0.0723 -0.65225,-0.1606 -0.30002,-0.11513 -0.41851,-0.003 -0.41851,0.39688 0,0.32482 0.16951,0.55747 0.40618,0.55747 0.76905,0 1.70735,0.85418 1.99577,1.81684 0.15896,0.53058 0.4395,1.17048 0.62342,1.422 0.61113,0.83577 2.92395,1.57155 3.41051,1.08498 z m 13.8431,-0.48817 c 0.90958,-0.59598 0.43033,-1.19469 -0.54045,-0.67515 -0.95765,0.51252 -1.95473,0.42054 -2.88332,-0.26599 -1.30973,-0.96833 -4.64157,-0.98506 -4.04532,-0.0203 0.10627,0.17194 0.62511,0.23114 1.29067,0.14727 0.94238,-0.11875 1.29546,-0.0142 2.30359,0.68216 1.32941,0.91827 2.60836,0.96184 3.87483,0.13202 z m 4.12882,-1.7699 c 0.72541,-0.51274 0.98722,-1.272 0.43861,-1.272 -0.15895,0 -0.59173,0.23813 -0.96173,0.52917 -0.80338,0.63194 -1.53162,0.66623 -2.80951,0.13229 -1.27299,-0.53189 -2.52837,-0.49775 -3.4245,0.0931 -0.57963,0.3822 -0.66457,0.54734 -0.39609,0.77015 0.24638,0.20449 0.52613,0.1816 1.00243,-0.082 0.89714,-0.49651 1.33418,-0.47333 2.68231,0.14228 1.30117,0.59416 2.31439,0.50272 3.46848,-0.31301 z m -22.55572,0.31905 c 0,-0.14357 -0.38695,-0.42278 -0.8599,-0.62047 -1.11557,-0.46632 -1.37735,-0.82557 -1.76762,-2.42579 -0.3527,-1.44619 -0.82786,-2.10671 -1.92278,-2.67292 -0.86729,-0.44849 -1.00595,-0.45774 -1.00595,-0.0671 0,0.16648 0.41876,0.6725 0.93057,1.12448 0.71537,0.63175 0.98566,1.12769 1.1688,2.14456 0.18208,1.01103 0.44366,1.49428 1.10995,2.05052 0.84632,0.70654 2.34693,1.00496 2.34693,0.46672 z m 11.10015,-0.69851 c 0.61812,-0.30836 1.23649,-0.38611 2.18108,-0.27423 1.09305,0.12945 1.45138,0.0578 2.09657,-0.41921 0.49203,-0.36377 1.22106,-0.59296 1.98247,-0.62325 0.87292,-0.0347 1.39845,-0.22886 1.91002,-0.70559 0.92865,-0.86542 1.71028,-1.25151 2.53363,-1.25151 0.4813,0 0.79029,-0.22862 1.08858,-0.80545 0.4318,-0.83502 1.80571,-1.83767 2.52048,-1.83939 0.22705,-5.5e-4 0.55784,-0.41021 0.74161,-0.91841 0.18246,-0.50457 0.78931,-1.30907 1.34855,-1.78776 0.66019,-0.5651 1.11778,-1.24532 1.30469,-1.93946 0.15834,-0.58801 0.64697,-1.41313 1.08586,-1.83361 0.65846,-0.63085 0.79827,-0.97556 0.79971,-1.97177 10e-4,-0.75541 0.19717,-1.50377 0.52389,-1.99944 0.41974,-0.6368 0.49073,-1.05948 0.36195,-2.15515 -0.11437,-0.97311 -0.0419,-1.60007 0.25327,-2.19179 0.36438,-0.73042 0.36832,-0.93685 0.0332,-1.73896 -0.42455,-1.0161 -0.49247,-2.45703 -0.1419,-3.01048 0.1519,-0.23981 0.0154,-0.68016 -0.40092,-1.2937 -0.43336,-0.63859 -0.63122,-1.30244 -0.63122,-2.11792 0,-0.98583 -0.15744,-1.36206 -0.92604,-2.2128 -0.59868,-0.66267 -0.92604,-1.28969 -0.92604,-1.77372 0,-0.55728 -0.27483,-0.96957 -1.07491,-1.61253 -0.5912,-0.47511 -1.27063,-1.27424 -1.50983,-1.77586 -0.29976,-0.62861 -0.78801,-1.06822 -1.57112,-1.41463 -0.71967,-0.31834 -1.3397,-0.8475 -1.6913,-1.44342 -0.39755,-0.6738 -0.74037,-0.94084 -1.20783,-0.94084 -0.78134,0 -1.57395,-0.3821 -2.47001,-1.19076 -0.42066,-0.37962 -1.129,-0.64611 -1.94577,-0.73203 -0.70637,-0.0743 -1.61841,-0.3821 -2.02675,-0.684 -0.60428,-0.44676 -0.98426,-0.52027 -2.04183,-0.39502 -0.92345,0.10937 -1.53644,0.0313 -2.11873,-0.2698 -0.75039,-0.38805 -0.90431,-0.38819 -1.82919,-0.002 -0.68988,0.28825 -1.41686,0.37374 -2.29443,0.2698 -1.04145,-0.12334 -1.42511,-0.0483 -2.02703,0.39677 -0.40834,0.3019 -1.32037,0.6097 -2.02674,0.684 -0.81677,0.0859 -1.52511,0.35241 -1.94577,0.73204 -0.88083,0.79491 -1.68499,1.19005 -2.43,1.19403 -0.4099,0.002 -0.81543,0.31615 -1.22518,0.94851 -0.37248,0.57485 -1.07144,1.14826 -1.78376,1.46336 -0.80063,0.35415 -1.2232,0.72495 -1.33533,1.1717 -0.0902,0.35947 -0.67529,1.1036 -1.30015,1.65363 -0.75528,0.66482 -1.23175,1.35521 -1.42142,2.05958 -0.15693,0.58274 -0.6444,1.40355 -1.08328,1.82403 -0.65847,0.63085 -0.79828,0.97556 -0.79971,1.97177 -10e-4,0.75541 -0.19718,1.50377 -0.52389,1.99944 -0.4177,0.6337 -0.49055,1.061 -0.3642,2.13612 0.11374,0.96768 0.0394,1.57318 -0.26542,2.16269 -0.38772,0.74976 -0.38784,0.90381 -0.001,1.82858 0.28598,0.68445 0.37364,1.41774 0.27203,2.27567 -0.11662,0.98469 -0.0314,1.46669 0.38373,2.17028 0.30166,0.51128 0.54001,1.40051 0.54828,2.04552 0.0117,0.91292 0.19359,1.33958 0.90969,2.13401 0.52449,0.58185 0.89505,1.27288 0.89505,1.6691 0,0.46235 0.36876,1.01175 1.16617,1.73746 0.64139,0.58371 1.31109,1.41119 1.48823,1.83884 0.21545,0.52015 0.70536,0.9471 1.47987,1.28971 0.74057,0.32758 1.35784,0.85119 1.71291,1.45298 0.39755,0.67379 0.74036,0.94083 1.20782,0.94083 0.78134,0 1.57396,0.38211 2.47001,1.19076 0.42066,0.37963 1.129,0.64612 1.94577,0.73203 0.70637,0.0743 1.6184,0.38209 2.02674,0.684 0.60476,0.44711 0.98399,0.5203 2.04492,0.39465 0.92693,-0.10978 1.525,-0.0338 2.07428,0.26364 0.96776,0.52399 0.91766,0.52376 1.95011,0.009 z m 11.60899,-1.55099 c 1.85637,0.30262 2.60278,0.21024 3.4676,-0.42915 0.903,-0.66762 1.20678,-1.26803 0.83147,-1.64335 -0.1719,-0.1719 -0.53901,0.0362 -1.07362,0.60847 -0.76836,0.82252 -0.88019,0.8591 -2.06257,0.67456 -2.25283,-0.35162 -4.00783,0.0589 -4.37823,1.02417 -0.23621,0.61555 0.412,0.66209 1.23098,0.0884 0.61687,-0.43214 0.96636,-0.48904 1.98437,-0.32308 z m -26.94575,-0.20145 c -0.002,-0.1819 -0.40934,-0.59369 -0.90564,-0.91509 -0.80724,-0.52277 -0.92041,-0.74589 -1.07363,-2.11667 -0.21558,-1.92871 -0.58504,-2.90269 -1.28779,-3.39492 -1.14051,-0.79884 -1.3171,-0.22208 -0.30154,0.98483 0.5115,0.60788 0.66146,1.0844 0.66146,2.10186 0,0.72366 0.18009,1.66401 0.4002,2.08966 0.57726,1.1163 2.51518,2.08284 2.50694,1.25033 z m 28.81581,-1.88945 c 0.48963,-0.52118 0.91511,-0.6508 2.41449,-0.73552 2.01224,-0.1137 2.90318,-0.66417 3.40504,-2.1038 0.23321,-0.66899 0.20289,-0.76133 -0.25001,-0.76133 -0.28347,0 -0.5154,0.14115 -0.5154,0.31368 0,0.17252 -0.25888,0.58924 -0.57529,0.92604 -0.44509,0.47378 -0.86034,0.61236 -1.83485,0.61236 -0.69277,0 -1.59475,0.127 -2.0044,0.28221 -0.90897,0.3444 -1.93546,1.27162 -1.93546,1.74829 0,0.55142 0.64477,0.41115 1.29588,-0.28193 z m -32.5167,-1.30557 c 0,-0.19292 -0.31006,-0.6394 -0.68902,-0.99219 -0.65693,-0.61156 -0.68108,-0.73044 -0.51877,-2.55269 0.17647,-1.98113 -0.0988,-2.99514 -1.0206,-3.76021 -0.68622,-0.56951 -0.78925,0.30014 -0.16159,1.36394 0.48981,0.83016 0.51654,1.07372 0.25283,2.30338 -0.34434,1.60558 -0.0424,2.63418 1.01801,3.46832 0.77172,0.60703 1.11914,0.65964 1.11914,0.16945 z m 35.85521,-1.84225 c 0.44466,-0.70842 0.78615,-0.89976 2.05376,-1.15073 1.74998,-0.34647 2.2499,-0.68756 2.74554,-1.87329 0.78207,-1.87094 0.10455,-2.24848 -0.82711,-0.46089 -0.53062,1.01811 -0.73857,1.13294 -2.83145,1.5635 -0.88211,0.18148 -2.33555,1.60201 -2.33555,2.28268 0,0.77159 0.59704,0.59107 1.19481,-0.36127 z m -39.29803,-3.16097 -0.59636,-1.06107 0.59253,-1.42958 c 0.62491,-1.50771 0.59551,-2.72381 -0.0885,-3.65921 -0.61038,-0.83474 -0.94252,-0.25857 -0.53418,0.92664 0.33588,0.9749 0.32142,1.16819 -0.16224,2.16926 -0.64468,1.33431 -0.67787,2.51333 -0.0954,3.38812 1.15818,1.73941 1.89335,1.46154 0.88411,-0.33416 z m 41.88727,-0.60098 c 0.33479,-0.70207 0.79292,-1.08286 1.88252,-1.56473 1.60745,-0.71089 2.27093,-1.63836 2.27093,-3.1745 0,-1.29191 -0.62286,-0.99403 -0.94336,0.45115 -0.22457,1.0126 -0.39249,1.1901 -1.82985,1.93425 -1.55199,0.8035 -2.51424,1.88105 -2.51706,2.81868 -0.002,0.78683 0.6713,0.51136 1.13682,-0.46485 z m -43.39613,-2.59119 c 0.0726,-0.18923 -0.0295,-0.63572 -0.2269,-0.99219 -0.52755,-0.95261 -0.46326,-1.36824 0.41125,-2.65883 0.80873,-1.1935 1.0799,-3.08859 0.55952,-3.91017 -0.43305,-0.6837 -0.82761,-0.0452 -0.65174,1.05462 0.14508,0.90731 0.0526,1.21659 -0.66089,2.2101 -0.92308,1.28538 -1.04381,2.29269 -0.4462,3.72299 0.39688,0.94985 0.78613,1.16979 1.01496,0.57348 z m 45.08413,-1.43469 c 0.16881,-0.71379 0.55851,-1.23207 1.41535,-1.88232 1.39468,-1.05842 1.82173,-1.72554 1.83448,-2.86573 0.014,-1.25001 -0.23461,-1.75718 -0.68007,-1.38747 -0.19968,0.16572 -0.29304,0.41461 -0.20746,0.55308 0.0856,0.13848 0.0793,0.65846 -0.0139,1.15553 -0.12811,0.68288 -0.46428,1.10653 -1.37554,1.7335 -1.18426,0.81478 -1.94695,2.04513 -1.94695,3.14075 0,0.92748 0.72806,0.59314 0.97413,-0.44734 z m -46.13837,-3.33847 c 0.0749,-0.1951 0.0299,-0.52252 -0.0999,-0.72761 -0.48225,-0.76179 -0.21405,-1.57974 0.94647,-2.88642 1.07696,-1.21259 1.19063,-1.46814 1.19063,-2.67671 0,-1.6445 -0.58642,-1.66792 -0.80907,-0.0323 -0.10679,0.78448 -0.45435,1.41713 -1.25677,2.28766 -0.92539,1.00393 -1.10916,1.38251 -1.10916,2.28494 0,1.58092 0.75637,2.74454 1.13784,1.75046 z m 47.03164,-1.16959 c 0.10679,-0.78447 0.45435,-1.41713 1.25677,-2.28765 0.94656,-1.02689 1.10916,-1.3713 1.10916,-2.34927 0,-1.33575 -0.62431,-2.41596 -1.03484,-1.79053 -0.1558,0.23736 -0.1577,0.55722 -0.005,0.84251 0.46304,0.86518 0.24565,1.56534 -0.85764,2.76227 -0.95968,1.04112 -1.11975,1.39018 -1.2262,2.67383 -0.0976,1.1769 -0.0481,1.45172 0.24387,1.35479 0.20147,-0.0669 0.43273,-0.60955 0.51391,-1.20595 z m -47.24815,-4.31138 c -0.2808,-0.88472 0.18043,-1.77871 1.3516,-2.61978 1.27282,-0.91407 1.9604,-1.98057 1.9604,-3.04077 0,-1.02654 -0.66639,-0.81078 -0.94552,0.30615 -0.17528,0.70134 -0.58428,1.23757 -1.43573,1.88232 -0.65484,0.49587 -1.33523,1.15587 -1.51198,1.46666 -0.34793,0.61181 -0.43896,1.98397 -0.17691,2.66685 0.23161,0.60356 0.95838,-0.0305 0.75814,-0.66143 z m 47.27749,-0.24293 c -0.0715,-0.92244 0.0622,-1.33884 0.7276,-2.26539 0.553,-0.77004 0.81524,-1.44468 0.81524,-2.09728 0,-0.99039 -0.62986,-2.52329 -1.03682,-2.52329 -0.42665,0 -0.4956,0.68439 -0.1346,1.33624 0.53066,0.95825 0.46175,1.42322 -0.41608,2.80741 -0.77503,1.22211 -1.01851,2.63568 -0.62885,3.6511 0.31942,0.83239 0.7622,0.23494 0.67351,-0.90879 z m -0.71986,-4.45869 c -0.28212,-0.82003 -0.26964,-1.1169 0.0798,-1.89811 0.69094,-1.54449 0.71946,-2.77945 0.0878,-3.80149 -1.10317,-1.78498 -1.852,-1.3222 -0.78547,0.48543 l 0.55905,0.94752 -0.58917,1.57543 c -0.62097,1.66045 -0.58,2.49905 0.17941,3.67228 0.57971,0.89561 0.89039,0.2451 0.46854,-0.98106 z m -45.89146,0.2027 c 0,-1.10489 0.66102,-1.92366 2.04841,-2.53723 1.4013,-0.61972 2.44641,-1.81686 2.44852,-2.80472 0.002,-0.76896 -0.672,-0.52044 -1.07574,0.39687 -0.27897,0.63381 -0.78424,1.05648 -1.92172,1.60757 -1.17956,0.57147 -1.63161,0.95917 -1.91823,1.64515 -0.51543,1.23358 -0.50322,2.53457 0.0219,2.33307 0.21829,-0.0838 0.39688,-0.37208 0.39688,-0.64071 z m 44.23402,-4.45214 c -0.52665,-0.93705 -0.55231,-1.15821 -0.27415,-2.36325 0.35987,-1.55902 0.0355,-2.65319 -1.03658,-3.49647 -1.24894,-0.98242 -1.61566,-0.28094 -0.43011,0.82274 0.65717,0.6118 0.68112,0.72994 0.51838,2.55691 -0.17274,1.93919 -0.0206,2.5746 0.85764,3.58088 0.74728,0.85627 1.01341,0.0532 0.36482,-1.10081 z m -42.2428,-0.6242 c 0.52941,-1.13868 0.60263,-1.18089 2.87133,-1.65494 0.9518,-0.19889 2.28121,-1.49749 2.28121,-2.22834 0,-0.80821 -0.58503,-0.65112 -1.19384,0.32057 -0.42479,0.67797 -0.7991,0.90394 -1.85209,1.1181 -0.72584,0.14761 -1.57208,0.41139 -1.88053,0.58616 -0.58788,0.3331 -1.42355,1.83524 -1.42355,2.55887 0,0.81172 0.67912,0.4145 1.19747,-0.70042 z m 40.34211,-2.0795 c 0,-0.1609 -0.29765,-0.64628 -0.66146,-1.07864 -0.51481,-0.61182 -0.66353,-1.08954 -0.67083,-2.15486 -0.005,-0.75282 -0.16201,-1.64382 -0.34857,-1.98001 -0.36699,-0.66134 -1.68676,-1.63314 -2.22174,-1.63597 -0.65919,-0.004 -0.30933,0.75237 0.59531,1.28612 0.67994,0.40117 0.93605,0.74212 0.96372,1.28291 0.0943,1.84443 0.20634,2.44283 0.59942,3.20295 0.54894,1.06154 1.74415,1.79991 1.74415,1.0775 z m -37.69962,-1.90047 c 0.43659,-0.69644 0.72295,-0.86195 1.58751,-0.91758 1.98525,-0.12774 2.75964,-0.35055 3.56058,-1.02451 0.83158,-0.69972 1.06041,-1.42116 0.45079,-1.42116 -0.19292,0 -0.61822,0.28471 -0.94513,0.63268 -0.48963,0.52119 -0.91511,0.6508 -2.41448,0.73553 -2.01226,0.1137 -2.90319,0.66416 -3.40505,2.1038 -0.22488,0.64507 -0.1968,0.75977 0.18385,0.75113 0.24709,-0.006 0.68896,-0.39256 0.98193,-0.85989 z m 34.7892,-1.31273 c -1e-5,-0.1819 -0.4115,-0.65906 -0.91443,-1.06035 -0.64725,-0.51643 -0.96139,-1.01892 -1.07517,-1.71979 -0.25243,-1.55489 -3.56664,-3.41525 -3.56664,-2.96801 0,0.14913 0.3272,0.39554 0.72712,0.54759 1.10731,0.421 1.62646,1.01024 1.8166,2.06189 0.25882,1.43143 0.82451,2.3753 1.7686,2.95095 0.98883,0.60292 1.24393,0.64142 1.24392,0.18772 z m -31.4854,-2.05052 c 0.79756,-0.85379 1.21756,-0.93879 2.63299,-0.53285 1.12277,0.32201 2.72234,-0.06 3.49761,-0.83525 0.77216,-0.77217 0.10023,-1.16595 -0.79197,-0.46414 -0.69829,0.54928 -1.57259,0.6384 -2.82684,0.28817 -0.4356,-0.12165 -1.16163,-0.12273 -1.61341,-0.002 -0.90567,0.24119 -2.2213,1.41357 -2.2213,1.97943 0,0.58832 0.53136,0.41442 1.32292,-0.43295 z m 27.78124,-0.79375 c 0,-0.29937 -0.17639,-0.52917 -0.40619,-0.52917 -0.76161,0 -1.68317,-0.8353 -1.99428,-1.80761 -0.1708,-0.53379 -0.55664,-1.24041 -0.85742,-1.57028 -1.00026,-1.09698 -3.9874,-1.53733 -3.08951,-0.45544 0.17973,0.21656 0.64863,0.39374 1.04201,0.39374 0.80863,0 1.61654,0.77556 2.10884,2.02439 0.38225,0.96965 1.20033,1.80225 2.13835,2.17629 0.95306,0.38004 1.0582,0.357 1.0582,-0.23192 z m -23.88469,-1.85209 c 0.78441,-0.61701 1.78492,-0.66571 2.71803,-0.13229 0.8788,0.50236 2.48284,0.49475 3.47144,-0.0165 0.62274,-0.32203 0.73431,-0.4917 0.50502,-0.76798 -0.24506,-0.29528 -0.4281,-0.28789 -1.09367,0.0441 -0.84583,0.42196 -1.25657,0.38146 -3.11677,-0.30728 -1.12039,-0.41483 -1.20173,-0.40879 -2.38124,0.17675 -0.67168,0.33344 -1.25973,0.81461 -1.30678,1.06928 -0.11327,0.61308 0.37454,0.58628 1.20397,-0.0661 z m 19.8515,-0.061 c -0.0597,-0.17909 -0.55568,-0.43136 -1.10217,-0.5606 -0.78799,-0.18636 -1.15241,-0.49304 -1.76082,-1.48183 -0.42195,-0.68576 -1.07259,-1.38598 -1.44587,-1.55606 -0.78318,-0.35684 -2.2164,-0.40083 -2.71683,-0.0834 -0.48603,0.30831 0.25468,0.90064 0.84364,0.67463 0.73629,-0.28254 1.86641,0.38639 2.55118,1.51008 0.35893,0.58899 0.95026,1.2353 1.31406,1.43624 0.8474,0.46805 2.46671,0.51063 2.31681,0.0609 z m -8.96364,-0.97177 c 0.64963,-0.41147 0.0642,-0.77321 -1.01679,-0.62822 -0.87134,0.11687 -1.27597,-0.005 -2.38995,-0.71985 -1.47065,-0.94371 -2.58395,-0.97806 -3.89332,-0.12013 -1.03546,0.67846 -0.36953,1.0884 0.926,0.57003 0.86912,-0.34776 1.13904,-0.35906 1.67091,-0.07 0.3489,0.18964 0.99154,0.5381 1.4281,0.77436 0.85376,0.46203 2.68083,0.57013 3.27505,0.19376 z m 4.72911,-0.0917 c -0.0603,-0.1819 -0.59769,-0.39716 -1.19409,-0.47834 -0.79073,-0.10764 -1.4193,-0.45635 -2.32128,-1.28777 -1.17833,-1.08614 -1.29904,-1.1342 -2.5477,-1.01421 -1.45668,0.13996 -2.18585,0.59782 -1.56409,0.9821 0.21327,0.1318 0.64395,0.12709 1.0072,-0.011 1.0368,-0.39419 1.31262,-0.29781 2.71685,0.94934 1.21259,1.07695 1.46814,1.19062 2.67671,1.19062 0.95104,0 1.30451,-0.0953 1.2264,-0.33073 z"
         style="fill:#ce980e;fill-opacity:1"
         id="path1-7" /><path
         d="m 90.98256,366.69268 v -10.24847 l 3.16824,3.15999 3.16824,3.15999 0.0729,3.84734 0.0729,3.84733 20.76403,0.0678 20.76403,0.0678 -3.1651,3.17338 c -1.74081,1.74535 -3.38124,3.17337 -3.6454,3.17337 -1.56124,0 -4.3628,-2.95136 -4.44551,-4.68321 -0.0151,-0.31666 -0.0915,-0.24941 -0.22815,0.20075 -0.33348,1.099 -0.81863,1.91318 -1.69909,2.85139 -1.60716,1.71258 -0.68056,1.63107 -18.54209,1.63107 H 90.98255 Z m 56.21704,7.0804 3.15982,-3.16807 3.71521,-0.0731 3.71522,-0.0731 0.0678,-20.76403 0.0678,-20.76404 3.17337,3.16511 c 1.74536,1.74081 3.17338,3.38124 3.17338,3.6454 0,1.56124 -2.95136,4.36279 -4.68322,4.44551 -0.32391,0.0155 -0.26411,0.0872 0.18701,0.22447 1.68099,0.51133 3.46853,1.94712 4.19988,3.37341 0.20925,0.4081 0.29633,5.3646 0.29633,16.86719 v 16.28927 h -10.11618 -10.11617 z m 17.86629,-28.19498 m -70.97448,2.85438 c -1.70987,-1.71437 -3.10885,-3.33143 -3.10885,-3.59348 0,-1.50692 2.28207,-3.75426 4.4962,-4.42777 0.45113,-0.13723 0.51092,-0.209 0.18701,-0.22447 -1.2129,-0.0579 -3.56642,-1.83348 -4.30891,-3.25075 -0.31089,-0.59342 -0.3743,-3.4735 -0.3743,-16.99949 v -16.28497 h 10.18242 10.18243 l -3.20041,3.10886 -3.20042,3.10885 -3.74086,0.13229 -3.74087,0.1323 -0.13229,20.70786 -0.1323,20.70785 z m 63.8439,-30.8903 -0.0727,-3.70417 -0.0727,-3.70416 -20.76404,-0.0678 -20.76403,-0.0678 3.16511,-3.17338 c 1.7408,-1.74535 3.38124,-3.17337 3.6454,-3.17337 1.56123,0 4.36279,2.95136 4.44551,4.68321 0.0155,0.32392 0.0872,0.26412 0.22447,-0.18701 0.51133,-1.68098 1.94712,-3.46853 3.37341,-4.19987 0.4081,-0.20925 5.3646,-0.29633 16.86719,-0.29633 h 16.28927 v 10.05417 c 0,5.52979 -0.0316,10.05417 -0.0703,10.05417"
         style="fill:#ce980e;fill-opacity:1"
         id="path1-96" /></g></g></svg>
